<svg width="18" height="18" viewBox="0 0 18 18" fill="none" xmlns="http://www.w3.org/2000/svg">
<g id="Ranking-icon-18px/Ethnicity-icon-18px">
<path id="Rectangle Copy 3" d="M5.375 17.625H12.625V8.5C12.625 7.60254 11.8975 6.875 11 6.875H7C6.10254 6.875 5.375 7.60254 5.375 8.5V17.625Z" fill="white" stroke="#49565D" stroke-width="0.75"/>
<path id="Rectangle Copy" d="M0.375 17.625H7.625V16.5C7.625 15.6025 6.89746 14.875 6 14.875H2C1.10254 14.875 0.375 15.6025 0.375 16.5V17.625Z" fill="white" stroke="#49565D" stroke-width="0.75"/>
<path id="Rectangle Copy 2" d="M10.375 17.625H17.625V16.5C17.625 15.6025 16.8975 14.875 16 14.875H12C11.1025 14.875 10.375 15.6025 10.375 16.5V17.625Z" fill="#676DFD" stroke="#49565D" stroke-width="0.75"/>
<path id="Rectangle" d="M1.5 11H6.5V13.5C6.5 14.8807 5.38071 16 4 16C2.61929 16 1.5 14.8807 1.5 13.5V11Z" fill="#676DFD" stroke="#49565D" stroke-width="0.75"/>
<path id="Rectangle Copy 5" d="M6.5 2.37988H11.5V5.37988C11.5 6.76059 10.3807 7.87988 9 7.87988C7.61929 7.87988 6.5 6.76059 6.5 5.37988V2.37988Z" fill="white" stroke="#49565D" stroke-width="0.75"/>
<path id="Fill 37" fill-rule="evenodd" clip-rule="evenodd" d="M7.60042 9L1.88001 9C1.05158 9 0.380005 9.67157 0.380005 10.5L0.380005 13C0.380005 13.5523 0.82772 14 1.38 14H1.51256V11.4123H6.38781C7.05781 11.4123 7.60042 10.848 7.60042 10.1529V9Z" fill="white" stroke="#49565D" stroke-width="0.75"/>
<path id="Fill 37 Copy 2" fill-rule="evenodd" clip-rule="evenodd" d="M12.6004 0.379883L6.88001 0.379883C6.05158 0.379883 5.38 1.05146 5.38 1.87988L5.38 4.37988C5.38 4.93217 5.82772 5.37988 6.38 5.37988H6.51256V2.79219H11.3878C12.0578 2.79219 12.6004 2.22792 12.6004 1.53274V0.379883Z" fill="#676DFD" stroke="#49565D" stroke-width="0.75"/>
<path id="Rectangle Copy 6" d="M11.5 11H16.5V13.5C16.5 14.8807 15.3807 16 14 16C12.6193 16 11.5 14.8807 11.5 13.5V11Z" fill="white" stroke="#49565D" stroke-width="0.75"/>
<path id="Fill 37 Copy" fill-rule="evenodd" clip-rule="evenodd" d="M17.6004 9L11.88 9C11.0516 9 10.38 9.67157 10.38 10.5L10.38 13C10.38 13.5523 10.8277 14 11.38 14H11.5126V11.4123H16.3878C17.0578 11.4123 17.6004 10.848 17.6004 10.1529V9Z" fill="white" stroke="#49565D" stroke-width="0.75"/>
</g>
</svg>
