<svg width="19" height="19" viewBox="0 0 19 19" fill="none" xmlns="http://www.w3.org/2000/svg">
<path d="M13.8101 18.46H2.19C1.63772 18.46 1.19 18.0122 1.19 17.46V7.95996C1.19 7.68382 1.41386 7.45996 1.69 7.45996H15.94C16.2161 7.45996 16.44 7.68382 16.44 7.95996V9.83008" stroke="#49565D" stroke-width="0.75"/>
<path fill-rule="evenodd" clip-rule="evenodd" d="M3.8659 2.83008H13.7541L16.41 7.83008H1.21002L3.8659 2.83008Z" fill="#676DFD" stroke="#49565D" stroke-width="0.75" stroke-linejoin="round"/>
<mask id="path-3-inside-1_3061_26198" fill="white">
<path d="M3.81 12.3301C3.81 12.0539 4.03386 11.8301 4.31 11.8301H7.31C7.58614 11.8301 7.81 12.0539 7.81 12.3301V18.8301H3.81V12.3301Z"/>
</mask>
<path d="M3.81 12.3301C3.81 12.0539 4.03386 11.8301 4.31 11.8301H7.31C7.58614 11.8301 7.81 12.0539 7.81 12.3301V18.8301H3.81V12.3301Z" stroke="#49565D" stroke-width="1.5" mask="url(#path-3-inside-1_3061_26198)"/>
<path fill-rule="evenodd" clip-rule="evenodd" d="M11.81 4.28452L9.17918 1.40419C8.98092 1.18713 8.63908 1.18713 8.44082 1.40419L5.81 4.28452L5.81 7.82996H11.81V4.28452Z" fill="white" stroke="#49565D" stroke-width="0.75"/>
<circle cx="13.81" cy="13.8301" r="4.625" stroke="#49565D" stroke-width="0.75"/>
<path d="M14.0589 16.8301V16.0305C14.4497 15.9985 14.7559 15.8749 14.9775 15.6595C15.1992 15.4442 15.31 15.168 15.31 14.8311C15.31 14.7139 15.2969 14.6057 15.2706 14.5065C15.2443 14.4074 15.2123 14.3215 15.1745 14.2491C15.1367 14.1766 15.0805 14.1073 15.0059 14.0412C14.9313 13.9751 14.8625 13.9212 14.7995 13.8797C14.7365 13.8381 14.6472 13.7933 14.5316 13.7453C14.4161 13.6973 14.3195 13.66 14.2417 13.6334C14.164 13.6067 14.0537 13.57 13.9108 13.523C13.7827 13.4804 13.6808 13.4442 13.6052 13.4143C13.5295 13.3844 13.4466 13.3466 13.3562 13.3008C13.2659 13.2549 13.1971 13.2091 13.1498 13.1632C13.1025 13.1174 13.0626 13.062 13.0301 12.9969C12.9975 12.9319 12.9812 12.8599 12.9812 12.781C12.9812 12.5913 13.0511 12.4447 13.1908 12.3413C13.3305 12.2379 13.5159 12.1862 13.747 12.1862C13.9108 12.1862 14.092 12.2203 14.2906 12.2885C14.4891 12.3567 14.6692 12.4516 14.831 12.5731L15.1619 12.167C15.0148 12.0518 14.8431 11.9511 14.6467 11.8647C14.4502 11.7784 14.2543 11.7192 14.0589 11.6872V10.8301H13.6241V11.6552C13.2396 11.6744 12.9392 11.7912 12.7228 12.0055C12.5064 12.2197 12.3982 12.49 12.3982 12.8162C12.3982 12.925 12.4119 13.0257 12.4392 13.1185C12.4665 13.2112 12.5001 13.2922 12.54 13.3615C12.58 13.4308 12.6372 13.4969 12.7118 13.5598C12.7864 13.6227 12.8552 13.6744 12.9182 13.7149C12.9812 13.7555 13.0668 13.7986 13.175 13.8445C13.2832 13.8903 13.3741 13.9266 13.4476 13.9532C13.5211 13.9799 13.6209 14.0134 13.747 14.054C13.8856 14.0966 13.9975 14.1339 14.0826 14.1659C14.1677 14.1979 14.2549 14.2373 14.3441 14.2842C14.4334 14.3311 14.5022 14.3802 14.5505 14.4314C14.5989 14.4825 14.6388 14.5449 14.6703 14.6185C14.7018 14.692 14.7176 14.7746 14.7176 14.8663C14.7176 15.0689 14.6409 15.2283 14.4875 15.3445C14.3342 15.4607 14.1346 15.5188 13.8888 15.5188C13.6745 15.5188 13.4576 15.4724 13.238 15.3797C13.0185 15.2869 12.8205 15.152 12.644 14.9751L12.31 15.3813C12.6924 15.7565 13.1304 15.9708 13.6241 16.0241V16.8301H14.0589Z" fill="#49565D"/>
</svg>
