<svg width="20" height="18" viewBox="0 0 20 18" fill="none" xmlns="http://www.w3.org/2000/svg">
<g id="Color=blue">
<path id="Stroke 1" fill-rule="evenodd" clip-rule="evenodd" d="M8.7155 8.19198H9.2545C9.6675 8.19198 10.0025 7.85698 10.0025 7.44398V6.45898H8.7155V8.19198Z" stroke="#49565D" stroke-width="0.75"/>
<path id="Stroke 3" d="M1.6623 8.19198H1.1233C0.710301 8.19198 0.375301 7.85698 0.375301 7.44398V6.45898H1.6623" stroke="#49565D" stroke-width="0.75"/>
<path id="Stroke 5" d="M4.0465 12.9731H2.3725C1.2695 12.9731 0.3755 13.8681 0.3755 14.9701V17.6251H10.0285V14.9701C10.0285 13.8681 9.1345 12.9731 8.0315 12.9731H6.3315" stroke="#49565D" stroke-width="0.75"/>
<path id="Fill 7" fill-rule="evenodd" clip-rule="evenodd" d="M7.086 16.1799H8.032V15.2339H7.086V16.1799Z" fill="#49565D"/>
<path id="Stroke 9" d="M6.3312 11.2939V12.9469C6.3312 13.4769 5.8172 13.9099 5.1882 13.9099C4.5602 13.9099 4.0462 13.4769 4.0462 12.9469V11.2939" stroke="#49565D" stroke-width="0.75"/>
<path id="Stroke 10" fill-rule="evenodd" clip-rule="evenodd" d="M2.1129 3.34131H8.2649C8.5139 3.34131 8.7159 3.54331 8.7159 3.79231V8.22531C8.7159 10.1653 7.1289 11.7523 5.1889 11.7523C3.2489 11.7523 1.6619 10.1653 1.6619 8.22531V3.79231C1.6619 3.54331 1.8639 3.34131 2.1129 3.34131Z" stroke="#49565D" stroke-width="0.75"/>
<path id="Stroke 11" d="M3.82 8.71338C4.03 9.26638 4.562 9.66138 5.189 9.66138C5.816 9.66138 6.347 9.26638 6.558 8.71338" stroke="#49565D" stroke-width="0.75" stroke-linecap="round"/>
<path id="Fill 12" fill-rule="evenodd" clip-rule="evenodd" d="M10.0026 0.375H2.5966C1.3696 0.375 0.375599 1.37 0.375599 2.597V6.459H1.6626V3.792C1.6626 3.543 1.8636 3.341 2.1126 3.341H8.2646C8.5136 3.341 8.7156 3.543 8.7156 3.792V6.459H10.0026V0.375Z" fill="#676DFD"/>
<path id="Stroke 13" fill-rule="evenodd" clip-rule="evenodd" d="M10.0026 0.375H2.5966C1.3696 0.375 0.375599 1.37 0.375599 2.597V6.459H1.6626V3.792C1.6626 3.543 1.8636 3.341 2.1126 3.341H8.2646C8.5136 3.341 8.7156 3.543 8.7156 3.792V6.459H10.0026V0.375Z" stroke="#49565D" stroke-width="0.75"/>
<path id="Stroke 14" d="M17.5866 10.0619H18.0126C18.3396 10.0619 18.6046 9.79689 18.6046 9.47089V8.69189H17.5866" stroke="#49565D" stroke-width="0.75"/>
<path id="Stroke 15" d="M12.0124 10.0619H11.5864C11.2594 10.0619 10.9944 9.79689 10.9944 9.47089V8.69189H12.0124" stroke="#49565D" stroke-width="0.75"/>
<path id="Stroke 16" d="M13.8966 13.8413H12.5736C11.7016 13.8413 10.9946 14.5483 10.9946 15.4203V17.6253H18.6256V15.4203C18.6256 14.5483 17.9176 13.8413 17.0466 13.8413H15.7026" stroke="#49565D" stroke-width="0.75"/>
<path id="Fill 17" fill-rule="evenodd" clip-rule="evenodd" d="M16.299 16.4541H17.047V15.7061H16.299V16.4541Z" fill="#49565D"/>
<path id="Stroke 18" d="M15.7023 12.5142V13.8212C15.7023 14.2392 15.2963 14.5812 14.7993 14.5812C14.3033 14.5812 13.8963 14.2392 13.8963 13.8212V12.5142" stroke="#49565D" stroke-width="0.75"/>
<path id="Stroke 19" fill-rule="evenodd" clip-rule="evenodd" d="M12.3683 6.22852H17.2303C17.4273 6.22852 17.5873 6.38752 17.5873 6.58452V10.0885C17.5873 11.6225 16.3323 12.8765 14.7993 12.8765C13.2663 12.8765 12.0123 11.6225 12.0123 10.0885V6.58452C12.0123 6.38752 12.1713 6.22852 12.3683 6.22852Z" stroke="#49565D" stroke-width="0.75"/>
<path id="Stroke 20" d="M13.7174 10.4746C13.8844 10.9116 14.3034 11.2236 14.7994 11.2236C15.2954 11.2236 15.7154 10.9116 15.8814 10.4746" stroke="#49565D" stroke-width="0.75" stroke-linecap="round"/>
<path id="Fill 21" fill-rule="evenodd" clip-rule="evenodd" d="M18.6042 3.88379H12.7502C11.7812 3.88379 10.9952 4.66979 10.9952 5.63979V8.69279H12.0122V6.58479C12.0122 6.38779 12.1712 6.22879 12.3682 6.22879H17.2302C17.4272 6.22879 17.5862 6.38779 17.5862 6.58479V8.69279H18.6042V3.88379Z" fill="#676DFD"/>
<path id="Stroke 22" fill-rule="evenodd" clip-rule="evenodd" d="M18.6042 3.88379H12.7502C11.7812 3.88379 10.9952 4.66979 10.9952 5.63979V8.69279H12.0122V6.58479C12.0122 6.38779 12.1712 6.22879 12.3682 6.22879H17.2302C17.4272 6.22879 17.5862 6.38779 17.5862 6.58479V8.69279H18.6042V3.88379Z" stroke="#49565D" stroke-width="0.75"/>
</g>
</svg>
