<svg width="18" height="18" viewBox="0 0 18 18" fill="none" xmlns="http://www.w3.org/2000/svg">
<g clip-path="url(#clip0_240_4832)">
<path fill-rule="evenodd" clip-rule="evenodd" d="M17.9303 7.87481C17.9763 8.2434 18 8.61891 18 8.99996C18 13.9705 13.9705 18 8.99999 18C8.8112 18 8.62377 17.9941 8.43787 17.9827L8.43759 15.2752C8.62287 15.2916 8.81045 15.3 8.99999 15.3C12.4794 15.3 15.3 12.4793 15.3 8.99996C15.3 8.61547 15.2655 8.23902 15.1996 7.87354L17.9303 7.87481Z" fill="#676DFD"/>
<path d="M9 17.625C13.7635 17.625 17.625 13.7635 17.625 9C17.625 4.23654 13.7635 0.375 9 0.375C4.23654 0.375 0.375 4.23654 0.375 9C0.375 13.7635 4.23654 17.625 9 17.625Z" stroke="#49565D" stroke-width="0.75"/>
<path d="M9.00001 14.925C12.2723 14.925 14.925 12.2722 14.925 8.99995C14.925 5.72766 12.2723 3.07495 9.00001 3.07495C5.72773 3.07495 3.07501 5.72766 3.07501 8.99995C3.07501 12.2722 5.72773 14.925 9.00001 14.925Z" stroke="#49565D" stroke-width="0.75"/>
<mask id="path-4-inside-1_240_4832" fill="white">
<path d="M9.28007 12.375V11.4755C9.71967 11.4395 10.0641 11.3004 10.3135 11.0581C10.5628 10.8158 10.6875 10.5052 10.6875 10.1262C10.6875 9.99427 10.6727 9.87253 10.6432 9.76099C10.6136 9.64945 10.5776 9.55291 10.5351 9.47135C10.4925 9.38979 10.4293 9.31183 10.3454 9.23747C10.2615 9.16311 10.1841 9.10255 10.1132 9.05577C10.0423 9.00899 9.94183 8.95862 9.81184 8.90465C9.68185 8.85068 9.57314 8.8087 9.48569 8.77872C9.39824 8.74873 9.27416 8.70736 9.11345 8.65458C8.96928 8.60661 8.85465 8.56583 8.76956 8.53225C8.68448 8.49867 8.59112 8.45609 8.4895 8.40452C8.38787 8.35294 8.31046 8.30137 8.25729 8.2498C8.20411 8.19823 8.1592 8.13586 8.12257 8.0627C8.08594 7.98954 8.06762 7.90858 8.06762 7.81983C8.06762 7.60634 8.14621 7.44143 8.30337 7.32509C8.46054 7.20876 8.66912 7.15059 8.9291 7.15059C9.11344 7.15059 9.31729 7.18897 9.54064 7.26573C9.76398 7.34248 9.96665 7.44923 10.1486 7.58595L10.5209 7.129C10.3554 6.99947 10.1622 6.88613 9.94124 6.78898C9.72026 6.69183 9.49987 6.62527 9.28007 6.58929V5.625H8.79084V6.5533C8.35832 6.57489 8.02035 6.70622 7.77692 6.94729C7.53348 7.18837 7.41176 7.4924 7.41176 7.85941C7.41176 7.98174 7.42713 8.09508 7.45785 8.19943C7.48858 8.30377 7.52639 8.39492 7.5713 8.47288C7.6162 8.55084 7.68061 8.6252 7.76451 8.69596C7.84841 8.76672 7.92581 8.82489 7.99672 8.87047C8.06762 8.91604 8.16393 8.96462 8.28565 9.01619C8.40737 9.06776 8.50959 9.10854 8.59231 9.13853C8.67503 9.16851 8.78729 9.20629 8.9291 9.25187C9.08508 9.29984 9.21094 9.34182 9.30666 9.3778C9.40238 9.41378 9.50046 9.45816 9.60091 9.51093C9.70135 9.5637 9.77876 9.61887 9.83311 9.67644C9.88747 9.73401 9.93238 9.80417 9.96783 9.88693C10.0033 9.96968 10.021 10.0626 10.021 10.1658C10.021 10.3937 9.93474 10.573 9.76221 10.7037C9.58968 10.8344 9.36515 10.8998 9.08863 10.8998C8.84756 10.8998 8.60353 10.8476 8.35655 10.7433C8.10957 10.6389 7.88682 10.4872 7.68829 10.2881L7.3125 10.7451C7.74265 11.1672 8.23543 11.4083 8.79084 11.4683V12.375H9.28007Z"/>
</mask>
<path d="M9.28007 12.375V11.4755C9.71967 11.4395 10.0641 11.3004 10.3135 11.0581C10.5628 10.8158 10.6875 10.5052 10.6875 10.1262C10.6875 9.99427 10.6727 9.87253 10.6432 9.76099C10.6136 9.64945 10.5776 9.55291 10.5351 9.47135C10.4925 9.38979 10.4293 9.31183 10.3454 9.23747C10.2615 9.16311 10.1841 9.10255 10.1132 9.05577C10.0423 9.00899 9.94183 8.95862 9.81184 8.90465C9.68185 8.85068 9.57314 8.8087 9.48569 8.77872C9.39824 8.74873 9.27416 8.70736 9.11345 8.65458C8.96928 8.60661 8.85465 8.56583 8.76956 8.53225C8.68448 8.49867 8.59112 8.45609 8.4895 8.40452C8.38787 8.35294 8.31046 8.30137 8.25729 8.2498C8.20411 8.19823 8.1592 8.13586 8.12257 8.0627C8.08594 7.98954 8.06762 7.90858 8.06762 7.81983C8.06762 7.60634 8.14621 7.44143 8.30337 7.32509C8.46054 7.20876 8.66912 7.15059 8.9291 7.15059C9.11344 7.15059 9.31729 7.18897 9.54064 7.26573C9.76398 7.34248 9.96665 7.44923 10.1486 7.58595L10.5209 7.129C10.3554 6.99947 10.1622 6.88613 9.94124 6.78898C9.72026 6.69183 9.49987 6.62527 9.28007 6.58929V5.625H8.79084V6.5533C8.35832 6.57489 8.02035 6.70622 7.77692 6.94729C7.53348 7.18837 7.41176 7.4924 7.41176 7.85941C7.41176 7.98174 7.42713 8.09508 7.45785 8.19943C7.48858 8.30377 7.52639 8.39492 7.5713 8.47288C7.6162 8.55084 7.68061 8.6252 7.76451 8.69596C7.84841 8.76672 7.92581 8.82489 7.99672 8.87047C8.06762 8.91604 8.16393 8.96462 8.28565 9.01619C8.40737 9.06776 8.50959 9.10854 8.59231 9.13853C8.67503 9.16851 8.78729 9.20629 8.9291 9.25187C9.08508 9.29984 9.21094 9.34182 9.30666 9.3778C9.40238 9.41378 9.50046 9.45816 9.60091 9.51093C9.70135 9.5637 9.77876 9.61887 9.83311 9.67644C9.88747 9.73401 9.93238 9.80417 9.96783 9.88693C10.0033 9.96968 10.021 10.0626 10.021 10.1658C10.021 10.3937 9.93474 10.573 9.76221 10.7037C9.58968 10.8344 9.36515 10.8998 9.08863 10.8998C8.84756 10.8998 8.60353 10.8476 8.35655 10.7433C8.10957 10.6389 7.88682 10.4872 7.68829 10.2881L7.3125 10.7451C7.74265 11.1672 8.23543 11.4083 8.79084 11.4683V12.375H9.28007Z" fill="#49565D"/>
<path d="M9.28007 12.375V13.375H10.2801V12.375H9.28007ZM9.28007 11.4755L9.19849 10.4788L8.28007 10.554V11.4755H9.28007ZM10.3135 11.0581L9.61662 10.3409H9.61662L10.3135 11.0581ZM10.6432 9.76099L9.67652 10.017L10.6432 9.76099ZM10.5351 9.47135L11.4217 9.00886L10.5351 9.47135ZM10.1132 9.05577L10.6639 8.22105L10.6639 8.22105L10.1132 9.05577ZM9.81184 8.90465L10.1953 7.98109L9.81184 8.90465ZM9.48569 8.77872L9.81003 7.83278L9.48569 8.77872ZM9.11345 8.65458L8.7977 9.60344L8.80147 9.60468L9.11345 8.65458ZM8.76956 8.53225L9.1367 7.60208H9.1367L8.76956 8.53225ZM8.4895 8.40452L8.94203 7.51277H8.94203L8.4895 8.40452ZM8.25729 8.2498L7.5611 8.96766H7.5611L8.25729 8.2498ZM8.12257 8.0627L7.2284 8.51043L7.2284 8.51043L8.12257 8.0627ZM8.30337 7.32509L7.70842 6.52133L7.70842 6.52133L8.30337 7.32509ZM9.54064 7.26573L9.21562 8.21143L9.54064 7.26573ZM10.1486 7.58595L9.54797 8.38545L10.3167 8.963L10.9239 8.21753L10.1486 7.58595ZM10.5209 7.129L11.2962 7.76058L11.9401 6.97013L11.1373 6.34162L10.5209 7.129ZM9.94124 6.78898L9.53879 7.70442L9.94124 6.78898ZM9.28007 6.58929H8.28007V7.4389L9.11852 7.57615L9.28007 6.58929ZM9.28007 5.625H10.2801V4.625H9.28007V5.625ZM8.79084 5.625V4.625H7.79084V5.625H8.79084ZM8.79084 6.5533L8.84069 7.55206L9.79084 7.50464V6.5533H8.79084ZM7.77692 6.94729L8.48057 7.65784H8.48057L7.77692 6.94729ZM7.99672 8.87047L8.53743 8.02926H8.53743L7.99672 8.87047ZM8.28565 9.01619L8.67578 8.09543H8.67578L8.28565 9.01619ZM8.9291 9.25187L8.62309 10.204L8.63513 10.2077L8.9291 9.25187ZM9.60091 9.51093L9.13581 10.3962L9.60091 9.51093ZM9.83311 9.67644L10.5602 8.98989V8.98989L9.83311 9.67644ZM9.96783 9.88693L9.04862 10.2807L9.04862 10.2807L9.96783 9.88693ZM9.76221 10.7037L10.3661 11.5007H10.3661L9.76221 10.7037ZM8.35655 10.7433L7.96738 11.6644H7.96738L8.35655 10.7433ZM7.68829 10.2881L8.3964 9.58201L7.61701 8.80041L6.91592 9.65294L7.68829 10.2881ZM7.3125 10.7451L6.54013 10.1099L5.95842 10.8173L6.61204 11.4588L7.3125 10.7451ZM8.79084 11.4683H9.79084V10.5704L8.89818 10.4741L8.79084 11.4683ZM8.79084 12.375H7.79084V13.375H8.79084V12.375ZM10.2801 12.375V11.4755H8.28007V12.375H10.2801ZM9.36164 12.4721C9.96903 12.4224 10.5539 12.2188 11.0103 11.7753L9.61662 10.3409C9.57434 10.382 9.47031 10.4566 9.19849 10.4788L9.36164 12.4721ZM11.0103 11.7753C11.472 11.3268 11.6875 10.7485 11.6875 10.1262H9.6875C9.6875 10.2619 9.65366 10.3049 9.61662 10.3409L11.0103 11.7753ZM11.6875 10.1262C11.6875 9.91995 11.6644 9.71099 11.6099 9.50496L9.67652 10.017C9.68104 10.0341 9.6875 10.0686 9.6875 10.1262H11.6875ZM11.6099 9.50496C11.5659 9.33907 11.5058 9.17017 11.4217 9.00886L9.64843 9.93384C9.64843 9.93383 9.64849 9.93394 9.64859 9.93415C9.6487 9.93437 9.64886 9.93469 9.64906 9.93512C9.64948 9.93598 9.65008 9.93727 9.65084 9.93901C9.65239 9.9425 9.65453 9.94766 9.65715 9.95466C9.66244 9.96883 9.66917 9.98928 9.67652 10.017L11.6099 9.50496ZM11.4217 9.00886C11.3119 8.7984 11.1645 8.62717 11.0087 8.48909L9.68212 9.98585C9.69413 9.9965 9.67313 9.98118 9.64843 9.93384L11.4217 9.00886ZM11.0087 8.48909C10.8998 8.39262 10.7845 8.30062 10.6639 8.22105L9.56251 9.89049C9.5837 9.90447 9.62317 9.93361 9.68212 9.98585L11.0087 8.48909ZM10.6639 8.22105C10.5171 8.12424 10.351 8.04575 10.1953 7.98109L9.42839 9.82821C9.47663 9.84824 9.51192 9.86453 9.53639 9.8768C9.56186 9.88958 9.56854 9.89447 9.56251 9.89049L10.6639 8.22105ZM10.1953 7.98109C10.0548 7.92274 9.92482 7.87214 9.81003 7.83278L9.16134 9.72466C9.22145 9.74527 9.30896 9.77862 9.42839 9.82821L10.1953 7.98109ZM9.81003 7.83278C9.71641 7.80068 9.58748 7.75771 9.42542 7.70449L8.80147 9.60468C8.96083 9.657 9.08007 9.69679 9.16134 9.72466L9.81003 7.83278ZM9.42919 7.70574C9.29264 7.6603 9.19744 7.62606 9.1367 7.60208L8.40243 9.46242C8.51186 9.50561 8.64591 9.55292 8.79771 9.60343L9.42919 7.70574ZM9.1367 7.60208C9.08669 7.58234 9.02225 7.55348 8.94203 7.51277L8.03697 9.29627C8.16 9.3587 8.28227 9.41499 8.40243 9.46242L9.1367 7.60208ZM8.94203 7.51277C8.93081 7.50708 8.9226 7.50257 8.91702 7.49935C8.91141 7.49612 8.90916 7.4946 8.9097 7.49496C8.9102 7.49529 8.91445 7.49814 8.92156 7.50376C8.92862 7.50934 8.93973 7.51861 8.95348 7.53194L7.5611 8.96766C7.71408 9.11603 7.88854 9.22095 8.03697 9.29627L8.94203 7.51277ZM8.95348 7.53194C8.98899 7.56639 9.00827 7.59805 9.01674 7.61497L7.2284 8.51043C7.31014 8.67367 7.41923 8.83007 7.5611 8.96766L8.95348 7.53194ZM9.01674 7.61497C9.05548 7.69233 9.06762 7.76657 9.06762 7.81983H7.06762C7.06762 8.05059 7.1164 8.28675 7.2284 8.51043L9.01674 7.61497ZM9.06762 7.81983C9.06762 7.83697 9.06398 7.89345 9.0293 7.96621C8.99321 8.04195 8.94186 8.09663 8.89833 8.12885L7.70842 6.52133C7.27054 6.84546 7.06762 7.3231 7.06762 7.81983H9.06762ZM8.89833 8.12885C8.88431 8.13923 8.87152 8.1465 8.86151 8.15128C8.85167 8.15598 8.84605 8.15753 8.84632 8.15745C8.84771 8.15707 8.87235 8.15059 8.9291 8.15059V6.15059C8.52496 6.15059 8.08665 6.24137 7.70842 6.52133L8.89833 8.12885ZM8.9291 8.15059C8.97674 8.15059 9.06893 8.16102 9.21562 8.21143L9.86566 6.32002C9.56565 6.21691 9.25015 6.15059 8.9291 6.15059V8.15059ZM9.21562 8.21143C9.34375 8.25547 9.45276 8.31392 9.54797 8.38545L10.7493 6.78646C10.4805 6.58453 10.1842 6.4295 9.86566 6.32002L9.21562 8.21143ZM10.9239 8.21753L11.2962 7.76058L9.74556 6.49742L9.37332 6.95438L10.9239 8.21753ZM11.1373 6.34162C10.8973 6.15367 10.63 5.9994 10.3437 5.87354L9.53879 7.70442C9.69445 7.77285 9.81357 7.84526 9.90441 7.91638L11.1373 6.34162ZM10.3437 5.87354C10.0521 5.74536 9.75102 5.65307 9.44162 5.60242L9.11852 7.57615C9.24872 7.59746 9.3884 7.6383 9.53879 7.70442L10.3437 5.87354ZM10.2801 6.58929V5.625H8.28007V6.58929H10.2801ZM9.28007 4.625H8.79084V6.625H9.28007V4.625ZM7.79084 5.625V6.5533H9.79084V5.625H7.79084ZM8.74098 5.55455C8.12971 5.58506 7.53427 5.78022 7.07327 6.23675L8.48057 7.65784C8.50643 7.63222 8.58693 7.56473 8.84069 7.55206L8.74098 5.55455ZM7.07327 6.23675C6.62571 6.67996 6.41176 7.24657 6.41176 7.85941H8.41176C8.41176 7.73824 8.44125 7.69678 8.48057 7.65784L7.07327 6.23675ZM6.41176 7.85941C6.41176 8.06563 6.43772 8.27521 6.49857 8.48189L8.41713 7.91696C8.41654 7.91495 8.41176 7.89785 8.41176 7.85941H6.41176ZM6.49857 8.48189C6.54711 8.64671 6.61335 8.81329 6.70477 8.97202L8.43782 7.97375C8.43944 7.97655 8.43005 7.96083 8.41713 7.91696L6.49857 8.48189ZM6.70477 8.97202C6.81882 9.17001 6.966 9.33068 7.1198 9.46039L8.40922 7.93153C8.39521 7.91972 8.41359 7.93167 8.43782 7.97375L6.70477 8.97202ZM7.1198 9.46039C7.22742 9.55116 7.33989 9.63704 7.456 9.71167L8.53743 8.02926C8.51174 8.01275 8.4694 7.98229 8.40922 7.93153L7.1198 9.46039ZM7.456 9.71167C7.59368 9.80017 7.74731 9.87415 7.89552 9.93695L8.67578 8.09543C8.63095 8.07644 8.59705 8.06062 8.57245 8.04821C8.54721 8.03548 8.53693 8.02894 8.53743 8.02926L7.456 9.71167ZM7.89552 9.93695C8.02632 9.99237 8.14618 10.0405 8.25153 10.0787L8.93308 8.19838C8.87299 8.1766 8.78841 8.14316 8.67578 8.09543L7.89552 9.93695ZM8.25153 10.0787C8.35094 10.1147 8.47642 10.1568 8.62312 10.2039L9.23507 8.29983C9.09816 8.25582 8.99911 8.22231 8.93308 8.19838L8.25153 10.0787ZM8.63513 10.2077C8.78161 10.2527 8.88594 10.288 8.9548 10.3139L9.65852 8.44175C9.53594 8.39567 9.38856 8.34695 9.22306 8.29605L8.63513 10.2077ZM8.9548 10.3139C9.00782 10.3338 9.06811 10.3606 9.13581 10.3962L10.066 8.62567C9.93281 8.55569 9.79693 8.49377 9.65852 8.44175L8.9548 10.3139ZM9.13581 10.3962C9.15344 10.4054 9.1582 10.4093 9.15387 10.4062C9.1498 10.4033 9.13128 10.3897 9.10603 10.363L10.5602 8.98989C10.405 8.82553 10.2255 8.70947 10.066 8.62567L9.13581 10.3962ZM9.10603 10.363C9.06936 10.3242 9.05322 10.2914 9.04862 10.2807L10.887 9.49315C10.8115 9.31692 10.7056 9.14386 10.5602 8.98989L9.10603 10.363ZM9.04862 10.2807C9.02356 10.2222 9.02101 10.1784 9.02101 10.1658H11.021C11.021 9.94686 10.983 9.71718 10.887 9.49315L9.04862 10.2807ZM9.02101 10.1658C9.02101 10.1514 9.02439 10.1016 9.05518 10.0376C9.08678 9.97194 9.12938 9.92855 9.15828 9.90665L10.3661 11.5007C10.8031 11.1696 11.021 10.6874 11.021 10.1658H9.02101ZM9.15828 9.90665C9.17685 9.89259 9.18943 9.8893 9.1849 9.89062C9.17823 9.89257 9.14903 9.89979 9.08863 9.89979V11.8998C9.52216 11.8998 9.97674 11.7958 10.3661 11.5007L9.15828 9.90665ZM9.08863 9.89979C8.9955 9.89979 8.8834 9.88027 8.74573 9.82211L7.96738 11.6644C8.32367 11.815 8.69962 11.8998 9.08863 11.8998V9.89979ZM8.74573 9.82211C8.62373 9.77057 8.50805 9.69398 8.3964 9.58201L6.98018 10.9942C7.26558 11.2804 7.59541 11.5073 7.96738 11.6644L8.74573 9.82211ZM6.91592 9.65294L6.54013 10.1099L8.08487 11.3802L8.46066 10.9233L6.91592 9.65294ZM6.61204 11.4588C7.18919 12.0252 7.88631 12.3764 8.68349 12.4625L8.89818 10.4741C8.58454 10.4402 8.29611 10.3093 8.01296 10.0314L6.61204 11.4588ZM7.79084 11.4683V12.375H9.79084V11.4683H7.79084ZM8.79084 13.375H9.28007V11.375H8.79084V13.375Z" fill="#49565D" mask="url(#path-4-inside-1_240_4832)"/>
</g>
<defs>
<clipPath id="clip0_240_4832">
<rect width="18" height="18" fill="white"/>
</clipPath>
</defs>
</svg>
