<svg width="18" height="18" viewBox="0 0 18 18" fill="none" xmlns="http://www.w3.org/2000/svg">
<g id="Color=blue">
<path id="Oval" d="M16.625 15C16.625 15.2685 16.4813 15.5691 16.1225 15.8871C15.7643 16.2048 15.2244 16.508 14.5252 16.7702C13.1294 17.2936 11.1761 17.625 9 17.625C6.82392 17.625 4.87056 17.2936 3.47482 16.7702C2.77556 16.508 2.23573 16.2048 1.87746 15.8871C1.51874 15.5691 1.375 15.2685 1.375 15C1.375 14.7315 1.51874 14.4309 1.87746 14.1129C2.23573 13.7952 2.77556 13.492 3.47482 13.2298C4.87056 12.7064 6.82392 12.375 9 12.375C11.1761 12.375 13.1294 12.7064 14.5252 13.2298C15.2244 13.492 15.7643 13.7952 16.1225 14.1129C16.4813 14.4309 16.625 14.7315 16.625 15Z" fill="#676DFD" stroke="#49565D" stroke-width="0.75"/>
<path id="Stroke 1" fill-rule="evenodd" clip-rule="evenodd" d="M9.01194 0.375C12.3192 0.375 15 3.05673 15 6.36306C15 7.90735 14.4776 9.16609 13.45 10.3723C12.4243 11.5775 8.99952 14.5811 8.99952 14.5811C8.99952 14.5811 5.57477 11.5775 4.54906 10.3723C3.5224 9.16609 3 7.90735 3 6.36306C3 3.05673 5.68078 0.375 8.98806 0.375H9.01194Z" fill="white" stroke="#49565D" stroke-width="0.75" stroke-linecap="round"/>
<path id="Stroke 3" fill-rule="evenodd" clip-rule="evenodd" d="M11.5 6.40042C11.5 7.78136 10.3804 8.90095 8.99948 8.90095C7.61959 8.90095 6.5 7.78136 6.5 6.40042C6.5 5.02054 7.61959 3.8999 8.99948 3.8999C10.3804 3.8999 11.5 5.02054 11.5 6.40042Z" fill="white" stroke="#49565D" stroke-width="0.75" stroke-linecap="round"/>
</g>
</svg>
