<svg width="18" height="18" viewBox="0 0 18 18" fill="none" xmlns="http://www.w3.org/2000/svg">
<g id="Education-icon-18px">
<path id="Fill 1" d="M3.42074 12.6139V5.42074H14.5793V12.6159C14.5793 13.2 14.2568 13.7365 13.741 14.0106L9.75018 16.1308C9.28762 16.3766 8.7333 16.377 8.27036 16.1319L4.26114 14.0096C3.74412 13.7359 3.42074 13.1988 3.42074 12.6139Z" stroke="#49565D" stroke-width="0.841478"/>
<path id="Combined Shape" d="M0.798248 5.35238L8.50894 0.513848C8.80256 0.329604 9.17564 0.329401 9.46946 0.513324L17.2009 5.35317C17.7743 5.71209 17.7651 6.5504 17.1839 6.89661L9.46395 11.4957C9.17878 11.6656 8.82345 11.6656 8.53828 11.4957L0.816083 6.89529C0.235326 6.54931 0.225642 5.7117 0.798248 5.35238Z" fill="#676DFD" stroke="#49565D" stroke-width="0.75"/>
<path id="Line 8" d="M16.5 7.5V15.5" stroke="#49565D" stroke-width="0.75" stroke-linecap="round"/>
<circle id="Oval" cx="16.5" cy="16.5" r="1.125" fill="#676DFD" stroke="#49565D" stroke-width="0.75"/>
</g>
</svg>
