<svg width="131" height="40" viewBox="0 0 131 40" fill="none" xmlns="http://www.w3.org/2000/svg">
<path fill-rule="evenodd" clip-rule="evenodd" d="M72.8047 17.1498C73.4643 15.069 74.9706 13.9447 77.0881 13.629C78.5877 13.406 80.0753 13.4826 81.5332 13.9567C81.9221 14.0826 82.0889 14.2069 82.0889 14.2069C82.0889 14.2069 82.2285 16.3022 82.2838 17.155C81.0685 16.6843 79.8634 16.4298 78.6072 16.4571C77.1826 16.4869 76.2855 17.1643 75.9485 18.5422C75.3885 20.8043 75.9485 22.5933 75.9485 22.5933C76.2855 23.9711 77.1826 24.6486 78.6072 24.6784C79.8634 24.7047 81.0685 24.4503 82.2838 23.9796C82.2285 24.8324 82.0889 26.9277 82.0889 26.9277C82.0889 26.9277 81.9221 27.0528 81.5332 27.1788C80.0753 27.6528 78.5877 27.7294 77.0881 27.5056C74.9706 27.1907 73.5009 26.1124 72.8047 23.9856C72.1758 22.0613 72.2345 19.0937 72.8047 17.1498Z" fill="#333333"/>
<path fill-rule="evenodd" clip-rule="evenodd" d="M64.177 21.7069C63.1311 21.7069 62.3277 22.1852 62.3277 23.3077C62.3277 24.1886 62.7004 24.7392 63.543 24.9179C64.2298 25.0507 64.9413 25.072 65.6579 24.8907C66.4332 24.6949 66.9983 24.1477 67.1166 23.3579C67.1957 22.8362 67.1923 22.2081 67.1923 21.7069H64.177ZM67.6843 27.3826C67.6843 27.3826 67.3438 26.403 67.1923 26.0005C66.1498 27.6328 64.5523 27.683 62.9285 27.6209C62.1421 27.5903 61.3889 27.3843 60.7149 26.9588C59.5157 26.2013 59.0434 25.0439 58.9762 23.6907C58.8604 21.3579 60.1506 19.8124 62.4749 19.5111C63.1047 19.4286 63.7464 19.4252 64.3838 19.4149C65.303 19.3996 66.2511 19.4107 67.1966 19.4107C67.1966 19.4107 67.24 18.3366 67.0383 17.7179C66.726 16.7545 65.6034 16.5562 64.7532 16.5273C62.5106 16.4515 60.0715 17.0209 60.0715 17.0209L60.594 14.0447C62.777 13.672 65.1166 13.3205 67.3098 13.8856C69.1591 14.3622 70.234 15.6541 70.4562 17.5503C70.503 17.9486 70.5362 18.3511 70.537 18.7511C70.543 21.529 70.537 27.3826 70.537 27.3826H67.6843Z" fill="#333333"/>
<path fill-rule="evenodd" clip-rule="evenodd" d="M118.608 21.7069C117.562 21.7069 116.758 22.1852 116.758 23.3077C116.758 24.1886 117.131 24.7392 117.973 24.9179C118.66 25.0507 119.372 25.072 120.088 24.8907C120.864 24.6949 121.428 24.1477 121.547 23.3579C121.625 22.8362 121.623 22.2081 121.623 21.7069H118.608ZM122.115 27.3826C122.115 27.3826 121.774 26.403 121.623 26.0005C120.58 27.6328 118.983 27.683 117.358 27.6209C116.573 27.5903 115.819 27.3843 115.145 26.9588C113.946 26.2013 113.474 25.0439 113.407 23.6907C113.29 21.3579 114.581 19.8124 116.905 19.5111C117.535 19.4286 118.177 19.4252 118.813 19.4149C119.733 19.3996 120.682 19.4107 121.627 19.4107C121.627 19.4107 121.671 18.3366 121.469 17.7179C121.156 16.7545 120.034 16.5562 119.184 16.5273C116.941 16.4515 114.501 17.0209 114.501 17.0209L115.025 14.0447C117.207 13.672 119.547 13.3205 121.739 13.8856C123.59 14.3622 124.664 15.6541 124.887 17.5503C124.933 17.9486 124.967 18.3511 124.968 18.7511C124.973 21.529 124.968 27.3826 124.968 27.3826H122.115Z" fill="#333333"/>
<path fill-rule="evenodd" clip-rule="evenodd" d="M53.7124 27.3825H57.1175V8.51019L53.7124 9.15785V27.3825Z" fill="#333333"/>
<path fill-rule="evenodd" clip-rule="evenodd" d="M45.4061 17.6527H42.2138V11.851H45.4061C47.1823 11.9429 48.1023 13.1838 48.1023 14.754C48.1023 16.4986 47.0231 17.5438 45.4061 17.6527ZM45.4061 8.72333H38.5244V27.3829H42.2138V20.7846H45.4061C48.7372 20.7846 51.721 19.1531 51.721 14.754C51.721 10.3548 48.7372 8.72333 45.4061 8.72333Z" fill="#333333"/>
<path fill-rule="evenodd" clip-rule="evenodd" d="M127.685 27.3829H130.999V13.7897H127.685V27.3829Z" fill="#333333"/>
<path fill-rule="evenodd" clip-rule="evenodd" d="M100.883 15.2981L100.504 13.7721H97.645V27.3823H100.978V19.7543C100.978 19.7543 100.991 19.2104 101.027 18.9415C101.219 17.4828 102.422 16.5245 103.665 16.4581C104.394 16.4189 104.991 16.5049 105.58 16.71L106.122 13.8462C103.921 13.1245 102.063 13.6717 100.883 15.2981Z" fill="#333333"/>
<path fill-rule="evenodd" clip-rule="evenodd" d="M92.5736 19.3382C92.514 17.4497 91.6425 16.2871 89.8034 16.2905C87.9847 16.2931 87.0698 17.6505 87.0672 19.3382H92.5736ZM95.0357 24.0659L94.5472 27.0369C92.446 27.6335 89.9881 27.8846 87.7702 27.2752C85.8613 26.751 84.5991 25.5237 84.0664 23.6284C83.4689 21.5016 83.4715 19.351 84.1608 17.2412C84.9132 14.9425 86.5889 13.7791 88.9498 13.5569C90.1106 13.4471 91.2681 13.5076 92.3762 13.9169C94.0613 14.5391 94.9804 15.8276 95.4366 17.5076C95.8 18.8454 95.7413 20.2123 95.7115 21.6225H87.0791C86.9881 23.2659 87.897 24.2531 89.1728 24.5425C90.4289 24.8267 91.6877 24.7246 92.9387 24.5093C93.6434 24.3876 94.3038 24.225 95.0357 24.0659Z" fill="#333333"/>
<path fill-rule="evenodd" clip-rule="evenodd" d="M106.756 27.382H110.696V23.5965H106.756V27.382Z" fill="#333333"/>
<path fill-rule="evenodd" clip-rule="evenodd" d="M127.686 11.8623V9.10315V8.72357H131V11.8623H127.686Z" fill="#333333"/>
<path fill-rule="evenodd" clip-rule="evenodd" d="M9.16307 15.319C8.45754 15.319 7.88647 14.7471 7.88647 14.0424V11.4892C7.88647 10.7846 8.45754 10.2126 9.16307 10.2126C9.86775 10.2126 10.4397 10.7846 10.4397 11.4892V14.0424C10.4397 14.7471 9.86775 15.319 9.16307 15.319Z" fill="#5E63E5"/>
<path fill-rule="evenodd" clip-rule="evenodd" d="M19.3757 15.319C18.6702 15.319 18.0991 14.7471 18.0991 14.0424V11.4892C18.0991 10.7846 18.6702 10.2126 19.3757 10.2126C20.0804 10.2126 20.6523 10.7846 20.6523 11.4892V14.0424C20.6523 14.7471 20.0804 15.319 19.3757 15.319Z" fill="#5E63E5"/>
<path fill-rule="evenodd" clip-rule="evenodd" d="M14.2694 22.9786C8.8634 22.9786 4.48213 18.3692 4.48213 12.6824C4.48213 11.7173 4.61149 10.7837 4.84723 9.89772V9.96495C5.39106 8.13687 7.01149 6.80836 8.92978 6.80836C11.2923 6.80836 12.9928 8.82368 12.9928 11.3096V14.313V15.319V16.0407C12.9928 16.7386 13.5587 17.3045 14.2566 17.3045H14.2821C14.98 17.3045 15.546 16.7386 15.546 16.0407V15.319V14.313V11.3096C15.546 8.82368 17.2455 6.80836 19.6089 6.80836C21.5272 6.80836 23.1477 8.13687 23.6915 9.96581V9.89772C23.9272 10.7837 24.0566 11.7173 24.0566 12.6824C24.0566 18.3692 19.6745 22.9786 14.2694 22.9786ZM18.0991 26.8101C18.0991 27.5139 17.5281 28.085 16.8243 28.085H16.8208C16.1162 28.085 15.546 27.5139 15.546 26.8101V26.256C15.546 26.2109 15.6055 26.2007 15.6208 26.2433C15.7979 26.7343 16.2685 27.0858 16.8208 27.0858H16.8243C17.3766 27.0858 17.8464 26.7343 18.0243 26.2433C18.0387 26.2007 18.0991 26.2109 18.0991 26.256V26.8101ZM15.546 29.3633C15.546 30.0671 14.9749 30.6381 14.2711 30.6381H14.2677C13.563 30.6381 12.9928 30.0671 12.9928 29.3633V28.8092C12.9928 28.7641 13.0523 28.7539 13.0677 28.7964C13.2447 29.2875 13.7153 29.639 14.2677 29.639H14.2711C14.8234 29.639 15.2932 29.2875 15.4711 28.7964C15.4855 28.7539 15.546 28.7641 15.546 28.8092V29.3633ZM11.7179 28.085H11.7145C11.0098 28.085 10.4396 27.5139 10.4396 26.8101V26.256C10.4396 26.2109 10.4991 26.2007 10.5145 26.2433C10.6915 26.7343 11.1621 27.0858 11.7145 27.0858H11.7179C12.2702 27.0858 12.74 26.7343 12.9179 26.2433C12.9323 26.2007 12.9928 26.2109 12.9928 26.256V26.8101C12.9928 27.5139 12.4217 28.085 11.7179 28.085ZM25.9843 5.56325L26.5315 2.55304H21.3766C18.134 2.55304 15.3715 4.58112 14.2694 7.43389C13.1672 4.58112 10.4038 2.55304 7.16127 2.55304H2.00723L2.55447 5.56325C1.05404 7.7224 0.226807 10.3896 0.226807 13.3718C0.226807 27.0875 14.2694 35.7445 14.2694 35.7445C14.2694 35.7445 28.3119 27.0875 28.3119 13.3718C28.3119 10.3896 27.4847 7.7224 25.9843 5.56325Z" fill="#5E63E5"/>
<path fill-rule="evenodd" clip-rule="evenodd" d="M19.8014 39.1488C19.8014 39.6186 17.3248 39.9999 14.2695 39.9999C11.2141 39.9999 8.73755 39.6186 8.73755 39.1488C8.73755 38.6782 11.2141 38.2977 14.2695 38.2977C17.3248 38.2977 19.8014 38.6782 19.8014 39.1488Z" fill="#5E63E5"/>
<path fill-rule="evenodd" clip-rule="evenodd" d="M14.2694 5.37885C15.6064 3.17714 18.0192 1.70225 20.7834 1.70225H21.6047C19.5468 0.615441 17.0805 0.00012207 14.2694 0.00012207C11.4583 0.00012207 8.99195 0.615441 6.93408 1.70225H7.75536C10.5196 1.70225 12.9324 3.17714 14.2694 5.37885Z" fill="#5E63E5"/>
</svg>
