<svg width="1209" height="521" viewBox="0 0 1209 521" fill="none" xmlns="http://www.w3.org/2000/svg">
<g clip-path="url(#clip0_91_49)">
<path d="M356.96 213.129C328.211 253.364 338.731 319.715 338.731 319.715C340.262 348.291 357.481 328.177 357.481 328.177C339.184 345.292 442.955 204.146 442.955 204.146L478.115 218.445C481.713 238.003 476.298 269.497 476.298 269.497C465.642 315.119 469.377 331.183 469.377 331.183C470.9 369.782 515.326 352.078 515.326 352.078C481.711 404.746 458.069 398.907 458.069 398.907C419.08 399.445 413.837 343.511 413.837 343.511C381.884 404.05 340.021 400.226 340.021 400.226C281.48 395.213 275.834 320.035 275.834 320.035C272.27 207.836 324.593 167.888 324.593 167.888C364.652 131.633 431.898 148.584 431.898 148.584C482.366 162.372 486.99 223.883 486.99 223.883C377.263 172.737 356.96 213.129 356.96 213.129ZM553.208 257.925L602.657 300.255C602.657 300.255 613.518 308.056 611.942 294.493C611.942 294.493 598.541 272.017 648.263 182.946C648.263 182.946 702.64 107.447 674.802 55.1962C674.802 55.1962 659.862 18.0891 616.585 18.3506C616.585 18.3506 521.256 12.3461 501.45 182.67C501.45 182.67 487.779 390.054 581.047 402.644C581.047 402.644 627.927 414.147 641.822 342.305C641.822 342.305 648.777 323.487 635.14 334.2C635.14 334.2 598.54 378.621 577.673 316.424C577.673 316.424 544.435 240.168 578.974 111.611C578.974 111.611 590.041 75.0861 610.4 77.6655C610.4 77.6655 633.085 80.2534 599.328 164.138C599.328 164.137 557.851 253.746 553.208 257.925ZM651.04 253.798C641.772 408.987 737.593 405.076 737.593 405.076C816.437 407.925 818.493 333.19 818.493 333.19C820.549 320.157 808.417 329.298 808.417 329.298C782.924 343.146 758.716 345.223 758.716 345.223C704.097 356.743 713.898 265.284 713.898 265.284C717.511 173.328 751.144 184.076 751.144 184.076C770.213 185.648 765.691 216.17 765.691 216.17C759.745 262.661 708.758 261.618 708.758 261.618C743.264 308.126 757.431 300.063 757.431 300.063C838.589 282.532 830.861 199.968 830.861 199.968C831.375 126.301 759.658 129.203 759.658 129.203C659.194 127.637 651.04 253.798 651.04 253.798ZM851.061 198.289C852.722 206.82 851.9 296.056 851.9 296.056C853.1 307.246 838.691 378.854 893.071 399.74C929.819 413.867 979.435 293.962 970.56 331.991C925.793 524.016 877.446 510.95 877.446 510.95C931.137 527.284 939.415 522.14 970.56 506.743C991.256 496.544 1039.43 305.292 1036.52 298.419C1035.65 296.326 1052.54 219.887 1029.12 199.948C998.623 174.023 991.206 123.041 992.011 137.254C997.287 228.235 924.423 312.814 917.021 311.964C909.569 311.138 910.322 220.537 912.79 198.8C915.275 177.063 814.124 121.545 828.704 138.59C840.011 151.825 849.604 191.035 851.061 198.289ZM1031.78 189.905C1052.68 189.905 1077.95 118.211 1077.95 109.427C1077.95 96.0119 1087.85 42.5453 1039.19 51.1292C977.088 62.0599 1000.11 137.75 1035.9 134.719C1045.98 133.893 1025.39 189.905 1031.78 189.905ZM1206.77 200.722C1219.14 182.668 1177.83 129.045 1138.03 132.711C1098.2 136.378 1054.85 185.118 1055.74 221.896C1056.63 258.752 1073.01 268.881 1081.27 274.571C1089.51 280.279 1146.37 307.664 1139.9 321.957C1133.46 336.257 1114.7 345.961 1100.58 344.876C1086.46 343.781 1057.97 344.129 1053.69 341.896C1049.4 339.697 1080.72 398.229 1104.71 404.903C1128.73 411.592 1198.73 390.272 1206.03 316.041C1209.83 277.108 1149.73 247.04 1159.52 252.695C1158.23 251.949 1123.18 229.298 1128.68 219.271C1133.15 211.157 1126.74 207.386 1160.27 197.768C1186.88 190.104 1208.96 202.694 1205.09 200.461L1206.77 200.722ZM1.57914 119.661C8.15909 110.47 72.4651 87.073 72.4651 87.073L51.0594 416.457C84.8532 400.54 107.074 372.973 107.074 372.973L121.929 102.113C120.276 101.279 98.8419 80.3757 98.8419 80.3757C145.819 60.2973 210.949 56.9605 210.949 56.9605C312.357 58.6467 268.67 113.798 268.67 113.798C262.87 127.177 154.884 188.202 154.884 188.202C90.5943 247.542 133.468 283.537 133.468 283.537C187.872 316.971 234.052 418.107 234.052 418.107C279.369 343.694 252.18 318.647 252.18 318.647C244.744 307.761 186.236 257.604 186.236 257.604C163.965 240.888 185.396 230.826 185.396 230.826C186.236 225.847 257.951 191.564 257.951 191.564C288.447 179.019 321.428 142.224 321.428 142.224C379.129 62.841 286.786 16.8461 286.786 16.8461C209.33 -34.1617 21.3609 46.923 21.3609 46.923C-8.30586 85.3783 1.57914 119.661 1.57914 119.661Z" fill="#FF0000"/>
</g>
<defs>
<clipPath id="clip0_91_49">
<rect width="1209" height="521" fill="white"/>
</clipPath>
</defs>
</svg>
