<svg width="18" height="18" viewBox="0 0 18 18" fill="none" xmlns="http://www.w3.org/2000/svg">
<g id="Visits icon">
<path id="Stroke 1" d="M13.3135 10.8203L10.4845 13.6503L13.3135 16.4793" stroke="#49565D" stroke-width="0.75"/>
<path id="Stroke 2" d="M10.4844 13.6499H17.9164" stroke="#49565D" stroke-width="0.75"/>
<path id="Stroke 4" d="M14.5869 7.88581L17.4159 5.05581L14.5869 2.22681" stroke="#49565D" stroke-width="0.75"/>
<path id="Stroke 6" d="M17.416 5.05615H9.984" stroke="#49565D" stroke-width="0.75"/>
<path id="Stroke 8" fill-rule="evenodd" clip-rule="evenodd" d="M7.2539 12.858V10.408C7.2539 9.30396 6.3589 8.40796 5.2539 8.40796H2.3749C1.2709 8.40796 0.374901 9.30396 0.374901 10.408V12.858L3.2449 17.625H4.3959L7.2539 12.858Z" fill="#676DFD" stroke="#49565D" stroke-width="0.75" stroke-linecap="round" stroke-linejoin="round"/>
<path id="Stroke 10" fill-rule="evenodd" clip-rule="evenodd" d="M1.0791 2.375H6.5501V4.752C6.5501 6.211 5.3561 7.405 3.8961 7.405H3.7321C2.2731 7.405 1.0791 6.211 1.0791 4.752V2.375Z" stroke="#49565D" stroke-width="0.75"/>
<path id="Stroke 12" d="M2.9414 5.19189C3.0764 5.54489 3.4154 5.79589 3.8144 5.79589C4.2144 5.79589 4.5524 5.54489 4.6874 5.19189" stroke="#49565D" stroke-width="0.75" stroke-linecap="round"/>
<path id="Stroke 14" d="M2.0625 15.5313V11.3203" stroke="#49565D" stroke-width="0.75" stroke-linecap="round" stroke-linejoin="round"/>
<path id="Stroke 16" d="M5.5674 15.5313V11.3203" stroke="#49565D" stroke-width="0.75" stroke-linecap="round" stroke-linejoin="round"/>
<path id="Stroke 20" fill-rule="evenodd" clip-rule="evenodd" d="M6.5498 0.375H2.4168C1.6778 0.375 1.0788 0.974 1.0788 1.712V2.375H6.5498V0.375Z" stroke="#49565D" stroke-width="0.75"/>
</g>
</svg>
